<svg version="1.1" viewBox="0.0 0.0 96.0 96.0" fill="none" stroke="none" stroke-linecap="square" stroke-miterlimit="10" xmlns:xlink="http://www.w3.org/1999/xlink" xmlns="http://www.w3.org/2000/svg"><clipPath id="p.0"><path d="m0 0l96.0 0l0 96.0l-96.0 0l0 -96.0z" clip-rule="nonzero"/></clipPath><g clip-path="url(#p.0)"><path fill="#000000" fill-opacity="0.0" d="m0 0l96.0 0l0 96.0l-96.0 0z" fill-rule="evenodd"/><path fill="#4285f4" d="m40.01708 9.238199l0 0c0.6215706 -2.3211226 3.0079727 -3.70217 5.3301773 -3.0846548l0 0l0 0c1.1151619 0.2965417 2.0660782 1.0237274 2.6435547 2.0215845c0.5774727 0.99785805 0.73420715 2.1846485 0.43571854 3.2992916l-15.292404 57.106285c-0.6215706 2.3211212 -3.0079708 3.7021637 -5.3301754 3.0846481l0 0l0 0c-2.3222046 -0.61750793 -3.700842 -2.9997482 -3.0792713 -5.3208694z" fill-rule="evenodd"/><path fill="#34a853" d="m8.999754 55.42061l0 0c-2.320979 -0.62210846 -3.7019095 -3.0089455 -3.0843945 -5.33115l0 0l0 0c0.2965412 -1.1151619 1.0236998 -2.0659714 2.0215087 -2.6432648c0.99780893 -0.5772934 2.1845326 -0.7337799 3.2991061 -0.4350357l57.516254 15.416443c2.3209763 0.62210846 3.7019043 3.0089455 3.0843887 5.33115l0 0l0 0c-0.61751556 2.3222046 -2.9996338 3.700409 -5.32061 3.0783005z" fill-rule="evenodd"/><path fill="#fbbc05" d="m62.849567 27.842726l0 0c0.62205124 -2.3209934 3.0088463 -3.7019348 5.331051 -3.0844212l0 0l0 0c1.1151657 0.29654312 2.0659866 1.0237026 2.6432953 2.0215168c0.57730865 0.9978142 0.7338257 2.1845455 0.43510437 3.2991257l-15.322151 57.16974c-0.62205505 2.3209915 -3.0088463 3.7019348 -5.331051 3.0844193l0 0l0 0c-2.3222046 -0.61751556 -3.700451 -2.999649 -3.0783997 -5.3206406z" fill-rule="evenodd"/><path fill="#ea4335" d="m27.50095 32.561916l0 0c-2.3209991 -0.62203217 -3.7019463 -3.0088081 -3.0844307 -5.3310127l0 0l0 0c0.2965412 -1.1151619 1.0237045 -2.0659885 2.0215187 -2.6433067c0.9978161 -0.5773182 2.1845493 -0.73383904 3.2991333 -0.43512917l57.642162 15.44821c2.3209991 0.62203217 3.7019424 3.0088081 3.0844269 5.3310127l0 0l0 0c-0.61751556 2.3222046 -2.999649 3.70047 -5.320648 3.0784378z" fill-rule="evenodd"/><path fill="#4285f4" d="m35.5467 25.903303l0 0c0.623703 -2.320551 3.011837 -3.7011337 5.3340416 -3.0836182l0 0l0 0c1.1151619 0.2965412 2.06567 1.0236187 2.6424217 2.0212822c0.5767479 0.9976635 0.73249817 2.1841888 0.4329834 3.2985573l-2.024826 7.533552c-0.6237068 2.320549 -3.011837 3.7011337 -5.3340416 3.0836182l0 0l0 0c-2.3222084 -0.61751556 -3.699112 -2.9992905 -3.075409 -5.3198395z" fill-rule="evenodd"/></g></svg>