<svg version="1.1" viewBox="0.0 0.0 96.0 96.0" fill="none" stroke="none" stroke-linecap="square" stroke-miterlimit="10" xmlns:xlink="http://www.w3.org/1999/xlink" xmlns="http://www.w3.org/2000/svg"><clipPath id="p.0"><path d="m0 0l96.0 0l0 96.0l-96.0 0l0 -96.0z" clip-rule="nonzero"/></clipPath><g clip-path="url(#p.0)"><path fill="#000000" fill-opacity="0.0" d="m0 0l96.0 0l0 96.0l-96.0 0z" fill-rule="evenodd"/><path fill="#34a853" d="m93.88976 75.259544l0 0c1.165451 0 2.1102371 0.9447861 2.1102371 2.1102371l0 0l0 0c0 0.5596695 -0.22232819 1.0964127 -0.6180725 1.492157c-0.39574432 0.39575195 -0.9324951 0.61808014 -1.4921646 0.61808014l-91.779526 0c-1.1654513 0 -2.1102362 -0.9447861 -2.1102362 -2.1102371l0 0l0 0c0 -1.165451 0.94478494 -2.1102371 2.1102362 -2.1102371z" fill-rule="evenodd"/><path fill="#ea4335" d="m36.09036 2.0997376l0 0c0 -1.156754 0.9377327 -2.0944884 2.0944862 -2.0944884l0 0l0 0c0.5554924 0 1.088234 0.22066864 1.4810295 0.61346143c0.39279175 0.3927927 0.61346054 0.925534 0.61346054 1.4810269l0 91.81102c0 1.1567535 -0.9377365 2.09449 -2.09449 2.09449l0 0l0 0c-1.1567535 0 -2.0944862 -0.9377365 -2.0944862 -2.09449z" fill-rule="evenodd"/><path fill="#34a853" d="m75.25108 2.0997376l0 0c0 -1.156754 0.9377365 -2.0944884 2.09449 -2.0944884l0 0l0 0c0.5554886 0 1.088234 0.22066864 1.4810257 0.61346143c0.39279175 0.3927927 0.61346436 0.925534 0.61346436 1.4810269l0 91.81102c0 1.1567535 -0.9377365 2.09449 -2.09449 2.09449l0 0l0 0c-1.1567535 0 -2.09449 -0.9377365 -2.09449 -2.09449z" fill-rule="evenodd"/><path fill="#4285f4" d="m93.88976 16.531801l0 0c1.165451 0 2.1102371 0.94478416 2.1102371 2.1102352l0 0l0 0c0 0.5596695 -0.22232819 1.0964165 -0.6180725 1.4921627c-0.39574432 0.39574623 -0.9324951 0.6180744 -1.4921646 0.6180744l-91.779526 0c-1.1654513 0 -2.1102362 -0.94478416 -2.1102362 -2.1102371l0 0l0 0c0 -1.165451 0.94478494 -2.1102352 2.1102362 -2.1102352z" fill-rule="evenodd"/><path fill="#fbbc05" d="m93.88976 55.683628l0 0c1.165451 0 2.1102371 0.9447861 2.1102371 2.1102371l0 0l0 0c0 0.5596695 -0.22232819 1.0964165 -0.6180725 1.4921608c-0.39574432 0.39574814 -0.9324951 0.6180763 -1.4921646 0.6180763l-91.779526 0c-1.1654513 0 -2.1102362 -0.9447861 -2.1102362 -2.1102371l0 0l0 0c0 -1.165451 0.94478494 -2.1102371 2.1102362 -2.1102371z" fill-rule="evenodd"/><path fill="#4285f4" d="m16.509995 2.0997376l0 0c0 -1.156754 0.9377346 -2.0944884 2.0944881 -2.0944884l0 0l0 0c0.5554924 0 1.088234 0.22066864 1.4810276 0.61346143c0.39279175 0.3927927 0.61346054 0.925534 0.61346054 1.4810269l0 91.81102c0 1.1567535 -0.9377346 2.09449 -2.0944881 2.09449l0 0l0 0c-1.1567535 0 -2.0944881 -0.9377365 -2.0944881 -2.09449z" fill-rule="evenodd"/><path fill="#fbbc05" d="m55.67072 2.0997376l0 0c0 -1.156754 0.9377365 -2.0944884 2.09449 -2.0944884l0 0l0 0c0.5554924 0 1.088234 0.22066864 1.4810257 0.61346143c0.39279556 0.3927927 0.61346436 0.925534 0.61346436 1.4810269l0 91.81102c0 1.1567535 -0.9377365 2.09449 -2.09449 2.09449l0 0l0 0c-1.1567535 0 -2.09449 -0.9377365 -2.09449 -2.09449z" fill-rule="evenodd"/><path fill="#ea4335" d="m93.88976 36.107716l0 0c1.165451 0 2.1102371 0.9447861 2.1102371 2.1102371l0 0l0 0c0 0.5596695 -0.22232819 1.0964165 -0.6180725 1.4921608c-0.39574432 0.39574814 -0.9324951 0.6180725 -1.4921646 0.6180725l-91.779526 0c-1.1654513 0 -2.1102362 -0.94478226 -2.1102362 -2.1102333l0 0l0 0c0 -1.165451 0.94478494 -2.1102371 2.1102362 -2.1102371z" fill-rule="evenodd"/><path fill="#34a853" d="m75.25108 35.349686l0 0c0 -1.1567535 0.9377365 -2.0944862 2.09449 -2.0944862l0 0l0 0c0.5554886 0 1.088234 0.22066498 1.4810257 0.61346054c0.39279175 0.39279175 0.61346436 0.9255333 0.61346436 1.4810257l0 5.7952766c0 1.1567535 -0.9377365 2.0944862 -2.09449 2.0944862l0 0l0 0c-1.1567535 0 -2.09449 -0.9377327 -2.09449 -2.0944862z" fill-rule="evenodd"/><path fill="#34a853" d="m60.665974 75.26162l0 0c1.165451 0 2.1102333 0.9447861 2.1102333 2.1102371l0 0l0 0c0 0.5596695 -0.22232819 1.0964127 -0.6180725 1.4921646c-0.39574814 0.39574432 -0.9324913 0.6180725 -1.4921608 0.6180725l-5.7637825 0c-1.165451 0 -2.1102333 -0.9447861 -2.1102333 -2.1102371l0 0l0 0c0 -1.165451 0.94478226 -2.1102371 2.1102333 -2.1102371z" fill-rule="evenodd"/><path fill="#34a853" d="m21.622494 75.26162l0 0c1.165451 0 2.1102352 0.9447861 2.1102352 2.1102371l0 0l0 0c0 0.5596695 -0.22232819 1.0964127 -0.6180744 1.4921646c-0.39574623 0.39574432 -0.9324913 0.6180725 -1.4921608 0.6180725l-5.7637806 0c-1.165451 0 -2.1102362 -0.9447861 -2.1102362 -2.1102371l0 0l0 0c0 -1.165451 0.9447851 -2.1102371 2.1102362 -2.1102371z" fill-rule="evenodd"/></g></svg>